<svg data-v-fde0c5aa="" xmlns="http://www.w3.org/2000/svg" viewBox="0 0 300 300" class="iconAbove"><!----><defs data-v-fde0c5aa=""><!----></defs><rect data-v-fde0c5aa="" fill="transparent" x="0" y="0" width="300px" height="300px" class="logo-background-square"></rect><defs data-v-fde0c5aa=""><!----></defs><g data-v-fde0c5aa="" id="04c08590-c772-4cec-bcd0-7c3bbb08750a" fill="#000000" transform="matrix(4.6453456196071485,0,0,4.6453456196071485,17.537968062049316,162.62337277299926)"><path d="M10.56 8.74L5.57 8.74L5.57 10.02L8.92 10.02C8.68 11.65 7.32 12.78 5.57 12.78C3.54 12.78 2.09 11.26 2.09 9.14C2.09 7.04 3.54 5.52 5.57 5.52C7.20 5.52 8.41 6.48 8.82 7.91L10.42 7.91C9.97 5.73 8.01 4.19 5.56 4.19C2.65 4.19 0.53 6.27 0.53 9.14C0.53 12.04 2.65 14.13 5.56 14.13C8.51 14.13 10.57 12.04 10.57 9.14C10.57 9.02 10.56 8.85 10.56 8.74ZM18.38 14L20.03 14L16.27 4.31L14.42 4.31L10.67 14L12.31 14L13.08 11.91L17.61 11.91ZM13.54 10.65L15.34 5.80L17.15 10.65ZM29.32 4.31L26.36 12.03L23.41 4.31L21.15 4.31L21.15 14L22.68 14L22.68 6.17L25.66 14L27.06 14L30.04 6.17L30.04 14L31.57 14L31.57 4.31ZM40.43 14L42.08 14L38.32 4.31L36.47 4.31L32.72 14L34.36 14L35.13 11.91L39.66 11.91ZM35.59 10.65L37.39 5.80L39.20 10.65ZM44.73 4.31L43.20 4.31L43.20 14L44.73 14ZM53.87 12.87C55.37 12.18 56.32 10.71 56.32 8.90C56.32 6.17 54.18 4.19 51.31 4.19C48.40 4.19 46.28 6.24 46.28 9.09C46.28 11.94 48.40 14 51.31 14L56.50 14L56.50 12.57ZM47.84 9.11C47.84 7.06 49.29 5.59 51.31 5.59C53.34 5.59 54.80 7.06 54.80 9.11C54.80 11.16 53.34 12.64 51.31 12.64C49.29 12.64 47.84 11.16 47.84 9.11Z"></path></g><defs data-v-fde0c5aa=""><linearGradient data-v-fde0c5aa="" gradientTransform="rotate(25)" id="ce7415f5-2fb5-4486-ad97-dd612f167ac7" x1="0%" y1="0%" x2="100%" y2="0%"><stop data-v-fde0c5aa="" offset="0%" stop-color="#8E42D3" stop-opacity="1"></stop><stop data-v-fde0c5aa="" offset="100%" stop-color="#D46975" stop-opacity="1"></stop></linearGradient></defs><g data-v-fde0c5aa="" id="f797b4c8-a258-4bf6-9a57-fcf10f587c8c" stroke="none" fill="url(#ce7415f5-2fb5-4486-ad97-dd612f167ac7)" transform="matrix(0.9441432263353976,0,0,0.9441432263353976,102.01297797739662,70.79374321877849)"><g clip-rule="evenodd"><path d="M12.983 10.59l17.018 88.223-5.872-59.049 29.021-1.892-.054-9.883L64.549 1 53.622 18.977z"></path><path d="M59.389 54.548l5.16-53.541-8.74 39.716-19.612 1.045 1.57 20.462-7.766 36.583 12.057-39.899z"></path><path d="M62.8 67.182l.549-10.453-15.979 3.755-.032 11.797-17.337 26.532 21.68-27.616zM65.711 62.394l14.841-4.731 1.509-12.532-15.899 2.095zM72.07 44.502l10.988-1.417 1.581-10.278-8.079-.373L64.549 1l8.43 30.967z"></path><path d="M87.413 31.294l1.256-9.506-9.544-2.694L64.549 1l14.483 22.437-.422 7z"></path></g></g><!----></svg>