<svg data-v-fde0c5aa="" xmlns="http://www.w3.org/2000/svg" viewBox="0 0 300 300" class="font"><!----><defs data-v-fde0c5aa=""><!----></defs><rect data-v-fde0c5aa="" fill="transparent" x="0" y="0" width="300px" height="300px" class="logo-background-square"></rect><defs data-v-fde0c5aa=""><linearGradient data-v-fde0c5aa="" gradientTransform="rotate(25)" id="c1ffde69-a3aa-45e5-bff7-25a1bc9ec0a9" x1="0%" y1="0%" x2="100%" y2="0%"><stop data-v-fde0c5aa="" offset="0%" stop-color="#8E42D3" stop-opacity="1"></stop><stop data-v-fde0c5aa="" offset="100%" stop-color="#D46975" stop-opacity="1"></stop></linearGradient></defs><g data-v-fde0c5aa="" id="e511f53a-d99b-48f9-87b0-d63fd62f5ffa" fill="url(#c1ffde69-a3aa-45e5-bff7-25a1bc9ec0a9)" transform="matrix(3.9306770627445102,0,0,3.9306770627445102,37.916742206349426,113.99499495644824)"><path d="M10.56 8.74L5.57 8.74L5.57 10.02L8.92 10.02C8.68 11.65 7.32 12.78 5.57 12.78C3.54 12.78 2.09 11.26 2.09 9.14C2.09 7.04 3.54 5.52 5.57 5.52C7.20 5.52 8.41 6.48 8.82 7.91L10.42 7.91C9.97 5.73 8.01 4.19 5.56 4.19C2.65 4.19 0.53 6.27 0.53 9.14C0.53 12.04 2.65 14.13 5.56 14.13C8.51 14.13 10.57 12.04 10.57 9.14C10.57 9.02 10.56 8.85 10.56 8.74ZM18.38 14L20.03 14L16.27 4.31L14.42 4.31L10.67 14L12.31 14L13.08 11.91L17.61 11.91ZM13.54 10.65L15.34 5.80L17.15 10.65ZM29.32 4.31L26.36 12.03L23.41 4.31L21.15 4.31L21.15 14L22.68 14L22.68 6.17L25.66 14L27.06 14L30.04 6.17L30.04 14L31.57 14L31.57 4.31ZM40.43 14L42.08 14L38.32 4.31L36.47 4.31L32.72 14L34.36 14L35.13 11.91L39.66 11.91ZM35.59 10.65L37.39 5.80L39.20 10.65ZM44.73 4.31L43.20 4.31L43.20 14L44.73 14ZM53.87 12.87C55.37 12.18 56.32 10.71 56.32 8.90C56.32 6.17 54.18 4.19 51.31 4.19C48.40 4.19 46.28 6.24 46.28 9.09C46.28 11.94 48.40 14 51.31 14L56.50 14L56.50 12.57ZM47.84 9.11C47.84 7.06 49.29 5.59 51.31 5.59C53.34 5.59 54.80 7.06 54.80 9.11C54.80 11.16 53.34 12.64 51.31 12.64C49.29 12.64 47.84 11.16 47.84 9.11Z"></path></g><!----><!----></svg>